<svg width="80" height="15" viewBox="0 0 80 15" fill="none" xmlns="http://www.w3.org/2000/svg">
<path d="M53.9048 0.499023C51.5203 0.499023 49.3939 1.55354 48.0115 3.20029C47.6034 2.66357 47.1045 2.0998 46.5595 1.70294C45.4155 0.828509 43.9323 0.56241 42.3472 0.518707C39.6637 0.444721 37.5175 1.92912 36.5291 3.59808C35.6941 1.89244 34.9451 1.00176 32.0401 0.85379H25.0003L25.0019 3.85809C25.0019 3.85809 25.3367 3.96757 25.4498 4.09476C25.5443 4.20087 25.6072 4.49393 25.6072 4.49393L25.5907 11.1809C25.5907 11.1809 25.4066 11.0442 25.3332 10.9566C25.1965 10.7936 25.0028 10.4082 25.0028 10.4082L21.3958 0.850586L16.8223 0.85379L12.8484 11.4913V9.21439H9.98847C9.76326 9.85019 9.13096 10.2796 8.3683 10.2796C7.96639 10.2796 7.53668 10.1825 7.18849 9.96832C6.73473 9.68915 6.39566 9.3576 6.11642 8.76852C5.89672 8.2234 5.72859 7.55593 5.70914 6.96539C5.77608 5.79748 6.12262 5.3812 6.75707 4.89951C6.89771 4.79272 7.29068 4.70733 7.40397 4.70679C7.65322 4.70558 7.86095 4.86039 7.97354 5.08856C8.1373 5.42044 7.8976 5.82246 7.66059 6.10846L9.97282 7.73947L13.544 3.91348C12.2981 1.88032 10.0215 0.519165 7.41962 0.519165C3.48037 0.519165 0.287109 3.63912 0.287109 7.4877C0.287109 11.3363 3.37819 14.2467 7.41962 14.5606L7.93062 14.5817H13.367V14.5789H26.0239V14.578L30.7825 14.5711V14.5634H31.5268V11.7005C31.5268 11.7005 31.1281 11.6154 30.964 11.5009C30.7916 11.3808 30.7753 11.1915 30.7753 11.1915C30.7722 11.1185 30.7866 11.0625 30.824 11.0148C30.8608 10.968 30.9467 10.9361 30.9792 10.9292C31.4706 10.8239 31.9717 10.6799 32.4733 10.4952C33.8116 10.0024 34.9378 9.30117 35.7373 8.52637C36.2723 11.7629 39.0502 14.1246 42.4084 14.519C42.6277 14.5447 42.8167 14.5642 43.0218 14.5716C43.0763 14.5736 43.1854 14.5693 43.1854 14.5693H47.9351L47.9206 12.1761C49.1558 13.5801 51.5624 14.9259 53.9915 14.9259C55.9763 14.9259 57.7566 14.036 59.0114 12.9357L59.0012 14.5908H64.9988L65.0294 12.0586L66.593 12.0795V12.0516L68.6911 12.0704V14.5817H75.0877V11.2542C75.0877 11.2542 74.8146 11.2363 74.7077 11.1599C74.5632 11.0566 74.4135 10.7099 74.4135 10.7099L73.5145 4.59647C73.5145 4.59647 73.5415 4.18749 73.6576 4.0348C73.7531 3.90916 74.0662 3.80454 74.0662 3.80454V0.853797H73.4939H72.5739H67.6897V0.937568L67.2399 2.48618L66.593 0.927497V0.853797H66.5626L66.5452 0.812141L66.5438 0.853797H60.3908V3.95103L59.9706 3.36509C58.8163 1.642 56.7902 0.499023 54.4828 0.499023C54.3888 0.499023 54.2952 0.500755 54.2021 0.504517C54.1034 0.50087 54.0044 0.499023 53.9048 0.499023ZM12.7692 12.0965L12.7688 12.1267H12.742C12.7511 12.1166 12.7601 12.1065 12.7692 12.0965H12.7692Z" fill="#0C4DA2"/>
<path d="M7.415 1.82861C4.16776 1.84954 1.51562 4.27148 1.51562 7.43972C1.51562 10.608 4.44333 13.3294 7.98724 13.2475L11.4309 13.2574V10.4815H10.7805C10.5762 11.0049 9.62176 11.5168 8.92977 11.5168C8.5651 11.5168 7.64707 11.4661 7.30747 11.3443C6.70789 11.1292 5.85236 10.8206 5.10849 9.54044C4.90916 9.09168 4.34786 7.99812 4.47327 6.40288C4.53401 5.44143 5.13045 4.24124 6.20072 3.69773C6.6674 3.46073 7.13721 3.42184 7.9621 3.49849C8.55431 3.55352 9.14275 3.97989 9.3482 4.49162C9.5071 4.88739 9.46144 5.36967 9.27438 5.64438C9.26104 5.66398 9.26075 5.68134 9.26352 5.70005C9.26562 5.71429 9.28366 5.73801 9.28366 5.73801L9.60962 5.99875C9.60962 5.99875 9.70242 6.06477 9.81082 6.06181C9.87377 6.06009 9.98631 5.99016 9.98631 5.99016L11.8478 3.98987C10.697 2.39983 8.65177 1.82861 7.415 1.82861Z" fill="#FFCB08"/>
<path d="M53.9346 1.77466C50.492 1.77466 47.7012 4.42603 47.7012 7.69675C47.7012 10.9675 50.492 13.6188 53.9346 13.6188C57.3772 13.6188 60.1681 10.9675 60.1681 7.69675C60.1681 4.42603 57.3772 1.77466 53.9346 1.77466ZM53.9753 3.61578C55.7474 3.61578 56.6972 4.91427 57.0822 6.46203C57.1924 6.90507 57.1477 8.37817 57.082 8.86869C56.8818 10.3645 55.6878 11.8221 53.9552 11.7773C52.2668 11.7335 51.1374 10.9287 50.7875 8.76406C50.6851 8.13085 50.6833 7.37018 50.7667 6.73407C51.0085 4.88961 52.2032 3.61578 53.9753 3.61578H53.9753Z" fill="#FFCB08"/>
<path d="M17.6781 2.14233C17.6781 2.14233 14.9408 9.7265 14.4503 11.1076C13.9598 12.4888 13.4082 12.4471 13.4082 12.4471L13.4489 13.2838L16.7572 13.2829L16.7599 12.4791C16.7599 12.4791 16.5476 12.4679 16.3919 12.3216C16.09 12.0379 16.2811 11.467 16.2811 11.467L17.046 9.46335L20.4433 9.47067C20.4433 9.47067 21.1055 11.1636 21.2676 11.7224C21.4792 12.4515 20.8183 12.4644 20.8183 12.4644V13.2816L25.002 13.2793L24.9993 12.4713C24.9993 12.4713 24.7502 12.4324 24.4852 12.1957C24.1846 11.9273 23.98 11.3736 23.98 11.3736L20.5537 2.15012L17.6781 2.14233ZM18.6603 4.47418L19.7946 7.70737L17.5977 7.71744L18.6603 4.47418Z" fill="#FFCB08"/>
<path d="M26.3391 2.13062L26.323 3.06033C26.323 3.06033 26.589 3.13835 26.8434 3.42746C26.9783 3.58074 26.8948 5.52631 26.8948 5.52631L26.8904 11.7542C26.8904 11.7542 26.977 11.9997 26.6861 12.2463C26.5762 12.3394 26.4789 12.4381 26.3092 12.4532L26.2891 13.2817L30.1665 13.2914L30.1759 12.4486C30.1759 12.4486 30.0387 12.3932 29.8236 12.1946C29.7021 12.0824 29.6273 11.921 29.6291 11.7601C29.6324 11.1975 29.6452 10.6569 29.6425 10.1076C31.0007 9.77264 32.1732 9.20464 32.6303 9.03232C34.3482 8.3304 35.6813 7.21594 35.6032 5.22784C35.5885 3.81932 34.8908 2.6648 33.3961 2.4039C32.7147 2.20232 32.4019 2.1671 32.1331 2.15167L26.3391 2.13062ZM30.7736 3.7096C31.1918 3.70138 31.6844 3.7995 32.0637 3.99508C32.5363 4.31636 32.8238 4.64919 32.8238 5.35327C32.8433 5.68428 32.7504 5.96888 32.5949 6.25827C32.433 6.53499 31.9432 7.06622 31.634 7.37012C30.7298 8.03196 30.4063 8.22599 29.688 8.56453L29.6765 3.84631C30.0593 3.77239 30.4026 3.71212 30.7736 3.7096Z" fill="#FFCB08"/>
<path d="M42.7295 1.83594C39.4822 1.85686 36.8301 4.2788 36.8301 7.44704C36.8301 10.6153 39.7578 13.3368 43.3017 13.2548L46.7454 13.2648V10.4888H46.095C45.8906 11.0122 44.9362 11.5241 44.2442 11.5241C43.8796 11.5241 42.9615 11.4734 42.6219 11.3516C42.0223 11.1366 41.1668 10.8279 40.4229 9.54776C40.2236 9.099 39.6623 8.00544 39.7877 6.4102C39.8485 5.44875 40.4449 4.24856 41.5152 3.70505C41.9819 3.46805 42.4517 3.42917 43.2766 3.50582C43.8688 3.56084 44.4572 3.98721 44.6627 4.49894C44.8216 4.89471 44.7759 5.37699 44.5888 5.6517C44.5755 5.6713 44.5752 5.68866 44.578 5.70737C44.5801 5.72161 44.5981 5.74534 44.5981 5.74534L44.9241 6.00607C44.9241 6.00607 45.0169 6.07209 45.1253 6.06913C45.1882 6.06742 45.3008 5.99749 45.3008 5.99749L47.1623 3.9972C46.0114 2.40715 43.9662 1.83594 42.7295 1.83594Z" fill="#FFCB08"/>
<path d="M61.7265 2.15259L61.7301 2.95139C61.7301 2.95139 62.0712 3.04542 62.2067 3.15509C62.3615 3.28047 62.3225 3.50299 62.3225 3.50299C62.3225 3.50299 61.085 11.3769 61.0582 11.523C61.0293 11.6802 60.9883 12.0475 60.7725 12.2518C60.5579 12.4548 60.3102 12.4958 60.3102 12.4958L60.3066 13.2836H63.7714V12.5475C63.7714 12.5475 63.4894 12.5252 63.3015 12.3328C63.1137 12.1404 63.1679 11.6118 63.1679 11.6118L64.0204 5.66318L65.7546 10.7828L67.867 10.8126L69.5828 5.29926L70.5405 11.6411C70.5405 11.6411 70.656 12.1179 70.4068 12.3626C70.215 12.5508 69.9374 12.5772 69.9374 12.5772V13.3133H73.9511L73.9476 12.5255C73.9476 12.5255 73.8577 12.557 73.6297 12.3699C73.4956 12.2598 73.431 11.769 73.4021 11.6118C73.3753 11.4657 72.2939 3.54282 72.2939 3.54282C72.2939 3.54282 72.275 3.21567 72.4503 3.04843C72.5767 2.9279 72.8352 2.8136 72.8352 2.8136L72.829 2.16129L68.6619 2.15625L67.1369 6.65378L65.6826 2.15625L61.7265 2.15259Z" fill="#FFCB08"/>
<path d="M77.7516 0.451416C76.6494 0.451416 75.7559 1.36634 75.7559 2.49495C75.7559 3.62356 76.6494 4.53848 77.7516 4.53848C78.8539 4.53848 79.7474 3.62356 79.7474 2.49495C79.7474 1.36634 78.8539 0.451416 77.7516 0.451416ZM77.7516 0.726153C78.7057 0.726153 79.4791 1.51807 79.4791 2.49495C79.4791 3.47182 78.7057 4.26374 77.7516 4.26374C76.7976 4.26374 76.0242 3.47182 76.0242 2.49495C76.0242 1.51807 76.7976 0.726153 77.7516 0.726153Z" fill="#0C4DA2"/>
<path d="M76.7227 1.26074V3.68002H77.2211V2.8414H77.8832L78.4313 3.69055L78.9911 3.68689L78.3223 2.78693C78.5969 2.67212 78.7912 2.38896 78.7912 2.05725C78.7912 1.62959 78.4682 1.28178 78.0665 1.27264V1.26257H77.2211V1.26074H76.7227ZM77.2211 1.74918L78.0504 1.75375C78.2189 1.78304 78.3308 1.80077 78.3262 2.05993C78.3214 2.33726 78.1128 2.37422 78.0504 2.37631L77.2211 2.38638V1.74918Z" fill="#0C4DA2"/>
</svg>
