<svg width="26" height="30" viewBox="0 0 26 30" fill="none" xmlns="http://www.w3.org/2000/svg">
<g clip-path="url(#clip0)">
<path d="M13.0063 8.26172C9.31518 8.26172 6.33795 11.2676 6.33795 14.9941C6.33795 18.7207 9.31518 21.7266 13.0063 21.7266C16.6973 21.7266 19.6746 18.7207 19.6746 14.9941C19.6746 11.2676 16.6973 8.26172 13.0063 8.26172ZM13.0063 19.3711C10.621 19.3711 8.67098 17.4082 8.67098 14.9941C8.67098 12.5801 10.6152 10.6172 13.0063 10.6172C15.3973 10.6172 17.3415 12.5801 17.3415 14.9941C17.3415 17.4082 15.3915 19.3711 13.0063 19.3711V19.3711ZM21.5027 7.98633C21.5027 8.85937 20.8063 9.55664 19.9473 9.55664C19.0826 9.55664 18.392 8.85351 18.392 7.98633C18.392 7.11914 19.0884 6.41601 19.9473 6.41601C20.8063 6.41601 21.5027 7.11914 21.5027 7.98633ZM25.9192 9.58008C25.8205 7.47656 25.3446 5.61328 23.8183 4.07812C22.2978 2.54297 20.4522 2.0625 18.3688 1.95703C16.2214 1.83398 9.78527 1.83398 7.63795 1.95703C5.56027 2.05664 3.71473 2.53711 2.18839 4.07227C0.662054 5.60742 0.191964 7.4707 0.0875 9.57422C-0.034375 11.7422 -0.034375 18.2402 0.0875 20.4082C0.186161 22.5117 0.662054 24.375 2.18839 25.9102C3.71473 27.4453 5.55447 27.9258 7.63795 28.0312C9.78527 28.1543 16.2214 28.1543 18.3688 28.0312C20.4522 27.9316 22.2978 27.4512 23.8183 25.9102C25.3388 24.375 25.8147 22.5117 25.9192 20.4082C26.0411 18.2402 26.0411 11.748 25.9192 9.58008V9.58008ZM23.1451 22.7344C22.6924 23.8828 21.8161 24.7676 20.6728 25.2305C18.9607 25.916 14.8982 25.7578 13.0063 25.7578C11.1143 25.7578 7.04598 25.9102 5.33973 25.2305C4.20223 24.7734 3.32589 23.8887 2.86741 22.7344C2.18839 21.0059 2.34509 16.9043 2.34509 14.9941C2.34509 13.084 2.1942 8.97656 2.86741 7.25391C3.32009 6.10547 4.19643 5.2207 5.33973 4.75781C7.05179 4.07226 11.1143 4.23047 13.0063 4.23047C14.8982 4.23047 18.9665 4.07812 20.6728 4.75781C21.8103 5.21484 22.6866 6.09961 23.1451 7.25391C23.8241 8.98242 23.6674 13.084 23.6674 14.9941C23.6674 16.9043 23.8241 21.0117 23.1451 22.7344Z" fill="#C9C9C9"/>
</g>
<defs>
<clipPath id="clip0">
<rect width="26" height="30" fill="white"/>
</clipPath>
</defs>
</svg>
