<svg width="19" height="15" viewBox="0 0 19 15" fill="none" xmlns="http://www.w3.org/2000/svg">
<path fill-rule="evenodd" clip-rule="evenodd" d="M18.831 11.4804C18.4599 11.9594 17.5506 12.3011 17.5506 12.3011L10.7863 14.7863V12.9535L15.7644 11.1392C16.3293 10.9322 16.416 10.6395 15.9568 10.4859C15.4985 10.3318 14.6686 10.376 14.1033 10.5839L10.7863 11.7788V9.87669L10.9775 9.81048C10.9775 9.81048 11.936 9.46351 13.2837 9.31077C14.6315 9.15892 16.2818 9.33152 17.5773 9.83387C19.0373 10.3058 19.2017 11.0015 18.831 11.4804ZM11.4302 8.35948V3.67231C11.4302 3.12184 11.3309 2.61507 10.826 2.4716C10.4393 2.34491 10.1994 2.71218 10.1994 3.26221V15L7.10464 13.9953V0C8.42047 0.249853 10.3375 0.840495 11.368 1.19585C13.9889 2.11624 14.8775 3.26177 14.8775 5.84285C14.8775 8.35859 13.3593 9.31209 11.4302 8.35948ZM1.42615 12.7619C-0.0726613 12.3302 -0.322104 11.4305 0.361058 10.9123C0.992433 10.4338 2.06616 10.0736 2.06616 10.0736L6.50347 8.45968V10.2996L3.31035 11.4685C2.7463 11.6755 2.65955 11.9687 3.11787 12.1223C3.57662 12.2759 4.40695 12.2322 4.97186 12.0247L6.50347 11.4562V13.1023C6.40637 13.1199 6.29805 13.1376 6.19793 13.1548C4.66588 13.4108 3.03415 13.304 1.42615 12.7619ZM17.8453 13.4907C18.0391 13.4907 18.2208 13.5675 18.3576 13.7092C18.4944 13.8487 18.5699 14.035 18.5699 14.2328C18.5699 14.4314 18.4944 14.6168 18.3576 14.7563C18.2208 14.8971 18.0391 14.974 17.8453 14.974C17.6516 14.974 17.4703 14.8971 17.3331 14.7563C17.1963 14.6168 17.1212 14.4314 17.1212 14.2328C17.1212 13.824 17.4457 13.4907 17.8453 13.4907ZM17.2429 14.2328C17.2429 14.3974 17.3055 14.5524 17.4194 14.668C17.5329 14.7855 17.6848 14.849 17.8453 14.849C18.1781 14.849 18.4478 14.5727 18.4478 14.2328C18.4478 14.0677 18.3857 13.9127 18.2713 13.7966C18.1578 13.6792 18.0059 13.6161 17.8453 13.6161C17.6848 13.6161 17.5329 13.6792 17.4194 13.7966C17.3055 13.9127 17.2429 14.0677 17.2429 14.2328ZM18.0641 13.8333C18.1436 13.869 18.1837 13.9379 18.1837 14.0359C18.1837 14.0862 18.1733 14.1286 18.1522 14.1617C18.1371 14.1855 18.1155 14.205 18.0913 14.2217C18.1103 14.2332 18.1272 14.2469 18.1397 14.2628C18.1569 14.2858 18.1669 14.3224 18.1681 14.3723L18.172 14.4778C18.1733 14.506 18.1751 14.5277 18.1794 14.5409C18.1837 14.5603 18.1919 14.5727 18.2022 14.5767L18.213 14.582V14.5939V14.612V14.6301H18.1953H18.0672H18.0568L18.0516 14.6208C18.0473 14.612 18.0443 14.6018 18.0413 14.5886C18.0391 14.5767 18.037 14.5559 18.0357 14.5241L18.0292 14.393C18.0275 14.3476 18.0124 14.3193 17.9839 14.3043C17.9662 14.2959 17.9368 14.2919 17.8971 14.2919H17.6775V14.612V14.6301H17.6593H17.5549H17.5372V14.612V13.8231V13.805H17.5549H17.9118C17.9731 13.805 18.0244 13.8143 18.0641 13.8333ZM17.6775 14.1657H17.901C17.9459 14.1657 17.9817 14.1573 18.0072 14.1401C18.0305 14.1229 18.0417 14.0915 18.0417 14.0461C18.0417 13.9966 18.0257 13.9644 17.9921 13.9472C17.9735 13.9379 17.9476 13.9326 17.9148 13.9326H17.6775V14.1657Z" fill="white"/>
</svg>
