<svg width="31" height="29" viewBox="0 0 31 29" fill="none" xmlns="http://www.w3.org/2000/svg">
<path d="M27.8134 8.59328C27.8331 8.85089 27.8331 9.10854 27.8331 9.36614C27.8331 17.2233 21.4404 26.2767 9.75634 26.2767C6.15671 26.2767 2.81283 25.3014 0 23.6085C0.511439 23.6637 1.00314 23.6821 1.53426 23.6821C4.50438 23.6821 7.23856 22.7437 9.42194 21.1428C6.62879 21.0876 4.28805 19.3763 3.48157 17.021C3.875 17.0761 4.26837 17.1129 4.68148 17.1129C5.2519 17.1129 5.82237 17.0393 6.35343 16.9106C3.44227 16.3585 1.25883 13.9664 1.25883 11.0774V11.0039C2.10461 11.4455 3.08819 11.7215 4.13063 11.7582C2.41933 10.691 1.29819 8.86929 1.29819 6.80837C1.29819 5.70433 1.61285 4.69227 2.16364 3.80902C5.29119 7.41561 9.99235 9.7709 15.2639 10.0286C15.1655 9.58693 15.1065 9.12695 15.1065 8.66692C15.1065 5.3915 17.939 2.72339 21.4599 2.72339C23.2892 2.72339 24.9415 3.44103 26.1021 4.60029C27.5379 4.34269 28.9148 3.84584 30.1344 3.16502C29.6623 4.54512 28.6591 5.70439 27.3413 6.44037C28.6198 6.31163 29.8591 5.98034 30.9999 5.52036C30.1345 6.69797 29.0526 7.74679 27.8134 8.59328V8.59328Z" fill="#C9C9C9"/>
</svg>
