<svg width="54" height="54" viewBox="0 0 54 54" fill="none" xmlns="http://www.w3.org/2000/svg">
<path d="M27.0007 1.44036C22.5606 1.44036 16.8639 0.0128822 16.8639 0.0128822C16.6438 -0.042244 16.5348 0.0841541 16.6217 0.293461L26.8429 24.9699C26.9297 25.1793 27.0717 25.1793 27.1585 24.9699L37.3795 0.293606C37.4664 0.0842991 37.3574 -0.0421009 37.1373 0.0130272C37.1373 0.0130272 31.4406 1.44036 27.0007 1.44036Z" fill="#E62329"/>
<path d="M27.0007 52.5596C22.5606 52.5596 16.8639 53.9871 16.8639 53.9871C16.6438 54.0422 16.5348 53.9158 16.6217 53.7064L26.8429 29.0301C26.9297 28.8206 27.0717 28.8206 27.1585 29.0301L37.3795 53.7062C37.4664 53.9157 37.3574 54.0419 37.1373 53.9869C37.1373 53.9869 31.4406 52.5596 27.0007 52.5596Z" fill="#E62329"/>
<path d="M1.44027 26.9999C1.44027 31.44 0.0129338 37.1368 0.0129338 37.1368C-0.0421932 37.3567 0.0840606 37.4656 0.293514 37.3788L24.9699 27.1577C25.1793 27.0708 25.1793 26.9289 24.9699 26.842L0.293659 16.621C0.084206 16.5342 -0.0421932 16.6432 0.0129338 16.8632C0.0129338 16.8632 1.44027 22.5599 1.44027 26.9999Z" fill="#E62329"/>
<path d="M52.5597 26.9999C52.5597 31.44 53.9872 37.1368 53.9872 37.1368C54.0423 37.3567 53.9159 37.4656 53.7065 37.3788L29.0301 27.1577C28.8207 27.0708 28.8207 26.9289 29.0301 26.842L53.7063 16.621C53.9158 16.5342 54.0421 16.6432 53.9871 16.8632C53.9871 16.8632 52.5597 22.5599 52.5597 26.9999Z" fill="#E62329"/>
<path d="M45.0737 8.92666C41.934 5.78705 38.9151 0.74943 38.9151 0.74943C38.7986 0.554813 38.6322 0.567179 38.5454 0.776632L28.3242 25.4529C28.2374 25.6625 28.3378 25.7628 28.5474 25.676L53.2234 15.4549C53.433 15.368 53.4454 15.2018 53.2508 15.0851C53.2508 15.0851 48.2133 12.0663 45.0737 8.92666Z" fill="white"/>
<path d="M8.92686 45.0736C5.78724 41.934 0.749602 38.9151 0.749602 38.9151C0.554985 38.7984 0.567349 38.6322 0.776947 38.5453L25.4532 28.3242C25.6628 28.2374 25.7631 28.3377 25.6763 28.5473L15.4553 53.2233C15.3684 53.4329 15.2022 53.4453 15.0855 53.2506C15.0855 53.2506 12.0665 48.2132 8.92686 45.0736Z" fill="white"/>
<path d="M8.9268 8.92641C5.78704 12.066 0.749545 15.0849 0.749545 15.0849C0.555073 15.2015 0.567292 15.3678 0.77689 15.4546L25.4531 25.6758C25.6627 25.7626 25.7631 25.6622 25.6762 25.4526L15.4551 0.776676C15.3682 0.567078 15.202 0.554859 15.0853 0.749331C15.0853 0.749331 12.0664 5.78681 8.9268 8.92641Z" fill="white"/>
<path d="M45.0737 45.0734C41.9339 48.213 38.9151 53.2506 38.9151 53.2506C38.7985 53.4453 38.6322 53.4329 38.5454 53.2233L28.3242 28.547C28.2374 28.3376 28.3378 28.2372 28.5474 28.3241L53.2234 38.5452C53.433 38.632 53.4454 38.7983 53.2508 38.9149C53.2508 38.9149 48.2133 41.9338 45.0737 45.0734Z" fill="white"/>
</svg>
