<svg width="28" height="25" viewBox="0 0 28 25" fill="none" xmlns="http://www.w3.org/2000/svg">
<path d="M26.72 6.05874C26.4147 4.90396 25.5151 3.99448 24.3729 3.68584C22.3025 3.125 14.0007 3.125 14.0007 3.125C14.0007 3.125 5.69885 3.125 3.62845 3.68584C2.48624 3.99453 1.58664 4.90396 1.28131 6.05874C0.726562 8.15186 0.726562 12.5189 0.726562 12.5189C0.726562 12.5189 0.726562 16.886 1.28131 18.9792C1.58664 20.1339 2.48624 21.0055 3.62845 21.3142C5.69885 21.875 14.0007 21.875 14.0007 21.875C14.0007 21.875 22.3025 21.875 24.3729 21.3142C25.5151 21.0055 26.4147 20.1339 26.72 18.9792C27.2747 16.886 27.2747 12.5189 27.2747 12.5189C27.2747 12.5189 27.2747 8.15186 26.72 6.05874V6.05874ZM11.2855 16.4839V8.55395L18.2242 12.519L11.2855 16.4839V16.4839Z" fill="#C9C9C9"/>
</svg>
